<svg xmlns="http://www.w3.org/2000/svg" width="640" height="560" viewBox="0 0 640 560"><defs><style>.cls-1{opacity:0.04;}.cls-2{fill:#fff;}</style></defs><title>news_home</title><g id="Layer_2" data-name="Layer 2"><g id="Layer_1-2" data-name="Layer 1"><g class="cls-1"><path class="cls-2" d="M489,15.06c.53.87.19,1.84-.89,2.5a6.43,6.43,0,0,1-4.25.64L465.77,15a5.26,5.26,0,0,1-1.73-.6,2.38,2.38,0,0,1-1.1-1.13c-.35-.81.05-1.69,1.08-2.29l11.79-6.85a6.26,6.26,0,0,1,3.85-.63,5,5,0,0,1,2,.63,2.61,2.61,0,0,1,1,.89Zm-22-2.38L485.1,15.9,478.77,5.83,467,12.68"/><path class="cls-2" d="M625.36,76.83c1.63.94,1.64,2.48,0,3.42L596,97.36a6.49,6.49,0,0,1-5.9,0L542.63,70c-1.65-1-1.66-2.46,0-3.41l29.44-17.11a6.46,6.46,0,0,1,5.9,0l3,1.71L585,48.81a3.13,3.13,0,0,1,1.7-.34,3,3,0,0,1,1.26.34,1.69,1.69,0,0,1,.29.22L602.8,62.49l23.28,8.4a2,2,0,0,1,.36.17,1.12,1.12,0,0,1,.6.72,1,1,0,0,1-.58,1l-4.06,2.36ZM601.59,64.89,572.23,82l20,7.23,29.36-17.06-20-7.23M569.27,80.24l29.36-17.06L586.07,51.6,556.71,68.66l12.56,11.58M593,95.65l29.43-17.11-3-1.72L594.06,91.57a3.3,3.3,0,0,1-2.61.18l-14-5.06,15.52,9M545.57,68.27l15.5,9-8.79-8.08c-.51-.48-.38-1.11.31-1.51L578,52.88l-3-1.71-29.44,17.1"/><path class="cls-2" d="M342.06,117.9c1.62.94,1.66,2.46,0,3.42l-29.44,17.1a6.52,6.52,0,0,1-5.9,0l-47.42-27.37c-1.65-1-1.63-2.48,0-3.42l29.44-17.11a6.46,6.46,0,0,1,5.9,0Zm-32.38,18.81,29.43-17.1L291.7,92.23l-29.44,17.11,47.42,27.37"/><path class="cls-2" d="M312.39,117.71c.54.87.2,1.84-.89,2.5a6.49,6.49,0,0,1-4.25.65l-18.12-3.22a6.07,6.07,0,0,1-1.73-.6,2.63,2.63,0,0,1-1.1-1.13c-.35-.81.05-1.69,1.08-2.29l11.79-6.85a6.46,6.46,0,0,1,3.88-.65,5.34,5.34,0,0,1,2,.65,2.46,2.46,0,0,1,1,.89Zm-22.05-2.38,18.15,3.2-6.36-10-11.79,6.85"/><polygon class="cls-2" points="202.92 64.86 199.98 66.57 185.18 58.02 188.12 56.31 202.92 64.86"/><path class="cls-2" d="M186.53,33.2a.91.91,0,0,1,0,1.73,3.23,3.23,0,0,1-2.95,0c-.83-.48-.86-1.23,0-1.71A3.29,3.29,0,0,1,186.53,33.2Z"/><path class="cls-2" d="M191,35.77a.91.91,0,0,1,0,1.71,3.22,3.22,0,0,1-2.93,0c-.82-.47-.85-1.23,0-1.71A3.33,3.33,0,0,1,191,35.77Z"/><path class="cls-2" d="M195.41,38.33c.83.48.83,1.25,0,1.72a3.2,3.2,0,0,1-2.95,0,.9.9,0,0,1,0-1.7A3.29,3.29,0,0,1,195.41,38.33Z"/><path class="cls-2" d="M179.17,37.48,197,47.75l-14.73,8.56L164.44,46Zm3,15.41,8.85-5.14L179.19,40.9,170.34,46l11.86,6.85"/><polygon class="cls-2" points="220.66 61.44 217.72 63.15 196.97 51.17 199.91 49.46 220.66 61.44"/><polygon class="cls-2" points="211.79 63.13 208.85 64.84 191.09 54.59 194.03 52.88 211.79 63.13"/><path class="cls-2" d="M235.39,56.31c1.62.94,1.66,2.47,0,3.42L206,76.84a6.52,6.52,0,0,1-5.9,0L152.65,49.46c-1.65-1-1.63-2.48,0-3.42l29.44-17.1a6.4,6.4,0,0,1,5.9,0ZM203,75.13,232.44,58,185,30.65l-29.44,17.1L203,75.13"/><path class="cls-2" d="M448.73,179.49c1.62.93,1.66,2.46,0,3.41L419.31,200a6.52,6.52,0,0,1-5.9,0L366,172.63c-1.65-.95-1.63-2.47,0-3.41l29.43-17.11a6.46,6.46,0,0,1,5.9,0l3,1.71,4.06-2.36a3.24,3.24,0,0,1,1.72-.35,2.9,2.9,0,0,1,1.22.35,1.46,1.46,0,0,1,.3.22l14.61,13.44,23.26,8.42a2.56,2.56,0,0,1,.37.17,1.31,1.31,0,0,1,.62.71,1,1,0,0,1-.61,1l-4.05,2.36Zm-23.78-12L395.59,184.6l20,7.23L445,174.77l-20-7.23m-32.32,15.35L422,165.83l-12.56-11.58-29.36,17.06,12.56,11.58m23.72,15.41,29.44-17.11-3-1.72-25.38,14.75a3.23,3.23,0,0,1-2.58.17l-14-5,15.52,9m-47.41-27.37,15.49,8.94-8.76-8.1c-.51-.48-.41-1.09.28-1.49l25.38-14.75-3-1.71-29.43,17.11"/><path class="cls-2" d="M454,97.19c.56.85.22,1.82-.86,2.48a6.46,6.46,0,0,1-4.25.65L430.8,97.1a5.26,5.26,0,0,1-1.73-.6,2.38,2.38,0,0,1-1.1-1.13c-.35-.81,0-1.69,1.08-2.29l11.76-6.84a6.43,6.43,0,0,1,3.88-.64,5.51,5.51,0,0,1,2,.64,2.63,2.63,0,0,1,1,.88Zm-22-2.4L450.13,98,443.77,88,432,94.79"/><path class="cls-2" d="M483.72,97.36c1.63.94,1.64,2.48,0,3.42L454.28,117.9a6.52,6.52,0,0,1-5.9,0L401,90.52c-1.66-1-1.64-2.48,0-3.41L430.41,70a6.49,6.49,0,0,1,5.9,0Zm-32.4,18.83,29.46-17.12L433.37,71.69,403.91,88.81l47.41,27.38"/><polygon class="cls-2" points="362.3 40.91 359.36 42.62 338.61 30.65 341.56 28.94 362.3 40.91"/><polygon class="cls-2" points="344.59 44.32 341.65 46.03 326.85 37.48 329.79 35.77 344.59 44.32"/><path class="cls-2" d="M320.81,17,338.6,27.23l-14.71,8.54L306.1,25.5Zm3.06,15.39,8.82-5.12-11.86-6.85L312,25.5l11.87,6.85"/><polygon class="cls-2" points="353.43 42.61 350.49 44.32 332.73 34.06 335.67 32.35 353.43 42.61"/><path class="cls-2" d="M328.17,12.68a.91.91,0,0,1,0,1.72,3.29,3.29,0,0,1-2.95,0c-.82-.48-.83-1.25,0-1.71A3.24,3.24,0,0,1,328.17,12.68Z"/><path class="cls-2" d="M337.05,17.8a.91.91,0,0,1,0,1.73,3.26,3.26,0,0,1-2.95,0,.9.9,0,0,1,0-1.69A3.26,3.26,0,0,1,337.05,17.8Z"/><path class="cls-2" d="M332.63,15.25c.8.46.8,1.23,0,1.71a3.26,3.26,0,0,1-2.92,0c-.83-.48-.84-1.25,0-1.71A3.26,3.26,0,0,1,332.63,15.25Z"/><path class="cls-2" d="M377.05,35.77c1.63.94,1.64,2.48,0,3.42L347.61,56.31a6.52,6.52,0,0,1-5.9,0L294.29,28.94c-1.65-1-1.63-2.48,0-3.42L323.74,8.4a6.46,6.46,0,0,1,5.9,0ZM344.65,54.6l29.46-17.12L326.7,10.11,297.24,27.23,344.65,54.6"/><path class="cls-2" d="M590.39,159c1.63.93,1.64,2.47,0,3.41L561,179.48a6.52,6.52,0,0,1-5.9,0l-47.41-27.37c-1.66-1-1.64-2.48,0-3.42l29.46-17.12a6.49,6.49,0,0,1,5.9,0l3,1.71,4-2.34a3.15,3.15,0,0,1,1.72-.35A3,3,0,0,1,553,131l.26.18,14.59,13.46L591.1,153l.31.15a1.39,1.39,0,0,1,.66.75,1,1,0,0,1-.61,1l-4,2.34ZM566.62,147l-29.39,17.07,20,7.24,29.39-17.08-20-7.23m-32.35,15.36,29.39-17.07L551.1,133.71l-29.38,17.08,12.55,11.57M558,177.78l29.46-17.13-3-1.72L559.06,173.7a3.27,3.27,0,0,1-2.58.17l-14-5.05,15.52,9M510.58,150.4l15.49,8.95-8.76-8.1c-.51-.48-.41-1.1.28-1.5L543,135l-3-1.71L510.58,150.4"/><path class="cls-2" d="M632.4,302.47c.54.87.2,1.84-.89,2.5a6.42,6.42,0,0,1-4.25.64l-18.12-3.21a6.19,6.19,0,0,1-1.73-.6,2.55,2.55,0,0,1-1.09-1.13c-.35-.81,0-1.69,1.07-2.29l11.79-6.85a6.46,6.46,0,0,1,3.88-.65,5.28,5.28,0,0,1,2,.65,2.57,2.57,0,0,1,1,.89Zm-22-2.38,18.15,3.2-6.36-10.05-11.79,6.85"/><polygon class="cls-2" points="522.94 249.62 520 251.33 505.2 242.78 508.14 241.07 522.94 249.62"/><path class="cls-2" d="M506.54,218c.83.48.84,1.25,0,1.73a3.23,3.23,0,0,1-2.95,0c-.82-.48-.85-1.23,0-1.71A3.24,3.24,0,0,1,506.54,218Z"/><path class="cls-2" d="M511,220.53c.8.46.8,1.23,0,1.71a3.2,3.2,0,0,1-2.92,0c-.83-.48-.86-1.23,0-1.71A3.33,3.33,0,0,1,511,220.53Z"/><path class="cls-2" d="M515.42,223.09c.83.48.84,1.25,0,1.72a3.23,3.23,0,0,1-2.95,0,.9.9,0,0,1,0-1.7A3.29,3.29,0,0,1,515.42,223.09Z"/><path class="cls-2" d="M499.18,222.24,517,232.51l-14.73,8.56L484.45,230.8Zm3,15.41,8.85-5.14-11.87-6.85-8.85,5.14,11.87,6.85"/><polygon class="cls-2" points="531.8 247.89 528.86 249.6 511.1 239.35 514.04 237.64 531.8 247.89"/><polygon class="cls-2" points="540.67 246.2 537.73 247.91 516.99 235.93 519.93 234.22 540.67 246.2"/><path class="cls-2" d="M555.4,241.07c1.62.94,1.66,2.47,0,3.42L526,261.6a6.56,6.56,0,0,1-5.9,0l-47.41-27.38c-1.66-.95-1.64-2.48,0-3.42l29.43-17.1a6.4,6.4,0,0,1,5.9,0ZM523,259.89l29.44-17.11L505,215.41l-29.43,17.1L523,259.89"/><path class="cls-2" d="M93.74,76.84c1.63.94,1.64,2.48,0,3.42L64.33,97.36a6.46,6.46,0,0,1-5.9,0L11,70c-1.65-1-1.66-2.47,0-3.42L40.43,49.46a6.49,6.49,0,0,1,5.9,0l3,1.71,4.05-2.35a3,3,0,0,1,1.7-.34,2.78,2.78,0,0,1,1.25.34,1.34,1.34,0,0,1,.3.21L71.18,62.49l23.27,8.4a2.56,2.56,0,0,1,.37.17,1.14,1.14,0,0,1,.6.73.94.94,0,0,1-.58,1l-4.06,2.36ZM70,64.89,40.61,82l20,7.24L90,72.13,70,64.89M37.65,80.24,67,63.18,54.45,51.6,25.09,68.66,37.65,80.24M61.37,95.65,90.8,78.55l-3-1.73L62.43,91.57a3.32,3.32,0,0,1-2.6.19l-14-5.07,15.52,9M14,68.28l15.5,8.94-8.79-8.08c-.51-.48-.38-1.11.31-1.51L46.35,52.88l-3-1.71L14,68.28"/><path class="cls-2" d="M135.75,220.36c.56.85.23,1.82-.86,2.48a6.34,6.34,0,0,1-4.25.65l-18.12-3.22a4.91,4.91,0,0,1-1.73-.6,2.41,2.41,0,0,1-1.1-1.12c-.35-.82,0-1.7,1.08-2.3l11.76-6.83a6.43,6.43,0,0,1,3.88-.65,5.34,5.34,0,0,1,2,.65,2.55,2.55,0,0,1,1,.88Zm-22-2.4,18.12,3.22-6.36-10.05L113.73,218"/><path class="cls-2" d="M165.44,220.53c1.63.94,1.64,2.48,0,3.42L136,241.07a6.52,6.52,0,0,1-5.9,0L82.69,213.7c-1.66-1-1.64-2.48,0-3.42l29.46-17.12a6.46,6.46,0,0,1,5.9,0ZM133,239.36l29.46-17.12-47.41-27.37L85.63,212,133,239.36"/><path class="cls-2" d="M14.35,138.42a.91.91,0,0,1,0,1.71,3.2,3.2,0,0,1-2.92,0c-.83-.47-.83-1.24,0-1.71A3.33,3.33,0,0,1,14.35,138.42Z"/><polygon class="cls-2" points="44.02 164.09 41.08 165.8 20.34 153.82 23.28 152.11 44.02 164.09"/><polygon class="cls-2" points="35.16 165.78 32.21 167.49 14.45 157.24 17.39 155.53 35.16 165.78"/><polygon class="cls-2" points="26.31 167.49 23.37 169.2 8.57 160.66 11.51 158.95 26.31 167.49"/><path class="cls-2" d="M9.89,135.85a.91.91,0,0,1,0,1.73,3.26,3.26,0,0,1-2.95,0c-.82-.48-.83-1.25,0-1.71A3.3,3.3,0,0,1,9.89,135.85Z"/><path class="cls-2" d="M18.77,141c.83.48.84,1.25,0,1.72a3.23,3.23,0,0,1-3,0,.9.9,0,0,1,0-1.69A3.26,3.26,0,0,1,18.77,141Z"/><path class="cls-2" d="M272.12,282.12c1.62.94,1.63,2.48,0,3.42l-29.46,17.12a6.52,6.52,0,0,1-5.9,0l-47.41-27.37c-1.66-1-1.64-2.48,0-3.42l29.46-17.12a6.46,6.46,0,0,1,5.9,0l3,1.7,4-2.34a3.24,3.24,0,0,1,1.72-.35,3.2,3.2,0,0,1,1.29.38,1.67,1.67,0,0,1,.26.17l14.59,13.46,23.28,8.41a2.09,2.09,0,0,1,.3.14,1.39,1.39,0,0,1,.66.75,1,1,0,0,1-.61,1l-4,2.34Zm-23.78-11.95L219,287.25l20,7.23,29.39-17.07-20-7.24M216,285.54l29.39-17.08-12.56-11.57L203.44,274,216,285.54M239.71,301l29.46-17.12-3-1.72-25.41,14.76a3.23,3.23,0,0,1-2.58.17l-14-5.05,15.52,9M192.3,273.58l15.49,8.94-8.76-8.1c-.51-.47-.41-1.09.28-1.49l25.41-14.77-3-1.71L192.3,273.58"/><path class="cls-2" d="M277.42,199.82c.54.87.2,1.84-.89,2.5a6.49,6.49,0,0,1-4.25.65l-18.12-3.22a5.35,5.35,0,0,1-1.73-.6,2.43,2.43,0,0,1-1.1-1.13c-.35-.81,0-1.69,1.08-2.29l11.79-6.85a6.26,6.26,0,0,1,3.85-.63,5,5,0,0,1,2.05.63,2.53,2.53,0,0,1,1,.89Zm-22.05-2.38,18.12,3.22-6.33-10.07-11.79,6.85"/><path class="cls-2" d="M307.09,200c1.62.94,1.63,2.48,0,3.42l-29.43,17.1a6.46,6.46,0,0,1-5.9,0l-47.42-27.37c-1.65-1-1.66-2.46,0-3.42l29.44-17.11a6.52,6.52,0,0,1,5.9,0Zm-32.38,18.81,29.43-17.1-47.41-27.38-29.44,17.11,47.42,27.37"/><path class="cls-2" d="M156,117.9a.9.9,0,0,1,0,1.69,3.26,3.26,0,0,1-2.95,0,.91.91,0,0,1,0-1.73A3.26,3.26,0,0,1,156,117.9Z"/><path class="cls-2" d="M151.54,115.33c.82.48.83,1.25,0,1.71a3.33,3.33,0,0,1-3,0,.92.92,0,0,1,0-1.73A3.28,3.28,0,0,1,151.54,115.33Z"/><path class="cls-2" d="M160.42,120.46c.82.47.83,1.24,0,1.7a3.26,3.26,0,0,1-3,0c-.8-.46-.8-1.23,0-1.7A3.22,3.22,0,0,1,160.42,120.46Z"/><polygon class="cls-2" points="176.8 145.26 173.85 146.97 156.09 136.72 159.04 135.01 176.8 145.26"/><path class="cls-2" d="M200.41,138.42c1.63.94,1.64,2.48,0,3.42L171,159a6.49,6.49,0,0,1-5.9,0l-47.42-27.38c-1.65-.95-1.66-2.46,0-3.42l29.44-17.1a6.46,6.46,0,0,1,5.9,0ZM168,157.24l29.43-17.11-47.41-27.37-29.44,17.1L168,157.24"/><path class="cls-2" d="M144.2,119.59,162,129.86l-14.73,8.56-17.78-10.27Zm3,15.42,8.83-5.13L144.19,123l-8.82,5.12L147.23,135"/><polygon class="cls-2" points="185.69 143.55 182.72 145.28 161.98 133.3 164.94 131.57 185.69 143.55"/><polygon class="cls-2" points="167.95 146.97 165.01 148.68 150.21 140.13 153.15 138.42 167.95 146.97"/><path class="cls-2" d="M413.76,261.6c1.62.94,1.63,2.48,0,3.41l-29.44,17.11a6.49,6.49,0,0,1-5.9,0L331,254.75c-1.65-1-1.66-2.47,0-3.42l29.44-17.11a6.49,6.49,0,0,1,5.9,0l3,1.71,4.06-2.36a3,3,0,0,1,1.69-.33,2.82,2.82,0,0,1,1.26.33,1.69,1.69,0,0,1,.29.22l14.59,13.46,23.28,8.4.37.17a1.15,1.15,0,0,1,.59.73.94.94,0,0,1-.58,1l-4.05,2.36Zm-23.78-12-29.36,17.06,20,7.23L410,256.88l-20-7.23M357.66,265,387,247.94l-12.56-11.58L345.1,253.42,357.66,265m23.72,15.41,29.44-17.1-3-1.73-25.38,14.75a3.34,3.34,0,0,1-2.61.19l-14-5.07,15.52,9M334,253,349.46,262l-8.79-8.08c-.51-.48-.38-1.11.31-1.51l25.38-14.75-3-1.71L334,253"/><path class="cls-2" d="M455.76,405.12c.57.85.23,1.82-.86,2.48a6.33,6.33,0,0,1-4.25.65L432.53,405a5.12,5.12,0,0,1-1.73-.6,2.46,2.46,0,0,1-1.1-1.12c-.34-.82.05-1.7,1.08-2.3l11.76-6.83a6.43,6.43,0,0,1,3.88-.65,5.33,5.33,0,0,1,2,.65,2.57,2.57,0,0,1,1,.87Zm-22-2.4,18.12,3.22-6.35-10.05-11.77,6.83"/><path class="cls-2" d="M485.46,405.29c1.62.94,1.63,2.48,0,3.42L456,425.83a6.52,6.52,0,0,1-5.9,0L402.7,398.46c-1.66-1-1.64-2.48,0-3.42l29.46-17.12a6.46,6.46,0,0,1,5.9,0Zm-32.41,18.83L482.52,407,435.1,379.63l-29.46,17.12,47.41,27.37"/><polygon class="cls-2" points="364.04 348.85 361.1 350.56 340.35 338.58 343.29 336.87 364.04 348.85"/><path class="cls-2" d="M322.54,324.89l17.79,10.27-14.71,8.55-17.78-10.27Zm3.06,15.4,8.83-5.13-11.87-6.85-8.82,5.13,11.86,6.85"/><polygon class="cls-2" points="355.17 350.54 352.23 352.25 334.47 342 337.41 340.29 355.17 350.54"/><polygon class="cls-2" points="346.32 352.25 343.38 353.96 328.58 345.42 331.52 343.71 346.32 352.25"/><path class="cls-2" d="M329.91,320.61a.92.92,0,0,1,0,1.73,3.28,3.28,0,0,1-3,0c-.82-.48-.83-1.25,0-1.71A3.29,3.29,0,0,1,329.91,320.61Z"/><path class="cls-2" d="M338.79,325.74c.82.48.83,1.25,0,1.72a3.23,3.23,0,0,1-2.95,0,.9.9,0,0,1,0-1.7A3.29,3.29,0,0,1,338.79,325.74Z"/><path class="cls-2" d="M334.36,323.18a.91.91,0,0,1,0,1.71,3.26,3.26,0,0,1-2.92,0c-.83-.47-.83-1.24,0-1.71A3.33,3.33,0,0,1,334.36,323.18Z"/><path class="cls-2" d="M378.79,343.71c1.62.94,1.63,2.48,0,3.42l-29.47,17.12a6.52,6.52,0,0,1-5.9,0L296,336.87c-1.66-.95-1.64-2.48,0-3.42l29.46-17.12a6.49,6.49,0,0,1,5.9,0Zm-32.41,18.83,29.47-17.12L328.43,318,299,335.16l47.41,27.38"/><path class="cls-2" d="M592.13,466.88c1.62.94,1.63,2.48,0,3.42l-29.46,17.12a6.55,6.55,0,0,1-5.91,0L509.37,460c-1.65-1-1.64-2.47,0-3.41l29.46-17.13a6.52,6.52,0,0,1,5.9,0l3,1.71,4-2.34a3.28,3.28,0,0,1,1.73-.35,3.31,3.31,0,0,1,1.28.37l.26.18,14.59,13.46,23.28,8.41.31.14a1.36,1.36,0,0,1,.65.75,1,1,0,0,1-.61,1l-4,2.34Zm-23.78-11.95L539,472l20,7.23,29.38-17.07-20-7.24M536,470.3l29.38-17.08-12.56-11.58-29.38,17.08L536,470.3m23.71,15.41,29.47-17.12-3-1.73-25.41,14.77a3.23,3.23,0,0,1-2.58.17l-14-5.05,15.52,9m-47.41-27.37,15.49,8.94-8.76-8.1c-.51-.48-.41-1.09.28-1.49l25.41-14.77-3-1.71-29.46,17.13"/><path class="cls-2" d="M627.1,384.77c1.62.94,1.63,2.48,0,3.42l-29.44,17.1a6.46,6.46,0,0,1-5.9,0l-47.41-27.37c-1.66-1-1.67-2.47,0-3.42l29.43-17.11a6.49,6.49,0,0,1,5.9,0Zm-32.38,18.81,29.44-17.1L576.74,359.1l-29.43,17.11,47.41,27.37"/><path class="cls-2" d="M597.43,384.58c.54.87.2,1.84-.89,2.5a6.48,6.48,0,0,1-4.25.65l-18.12-3.22a5.35,5.35,0,0,1-1.73-.6,2.4,2.4,0,0,1-1.09-1.13c-.35-.81,0-1.69,1.07-2.29l11.79-6.85a6.26,6.26,0,0,1,3.85-.63,5,5,0,0,1,2.05.63,2.57,2.57,0,0,1,1,.89Zm-22-2.38,18.12,3.22-6.33-10.07-11.79,6.85"/><path class="cls-2" d="M471.55,300.09c.82.47.83,1.24,0,1.71a3.3,3.3,0,0,1-3,0,.91.91,0,0,1,0-1.73A3.26,3.26,0,0,1,471.55,300.09Z"/><path class="cls-2" d="M476,302.66a.9.9,0,0,1,0,1.69,3.26,3.26,0,0,1-2.95,0,.91.91,0,0,1,0-1.73A3.26,3.26,0,0,1,476,302.66Z"/><path class="cls-2" d="M480.43,305.21c.82.48.83,1.25,0,1.71a3.24,3.24,0,0,1-3,0,.9.9,0,0,1,0-1.7A3.25,3.25,0,0,1,480.43,305.21Z"/><path class="cls-2" d="M464.21,304.35,482,314.62l-14.73,8.56-17.79-10.27Zm3,15.41,8.82-5.12-11.87-6.85-8.82,5.12,11.87,6.85"/><polygon class="cls-2" points="505.7 328.31 502.74 330.03 481.99 318.06 484.96 316.33 505.7 328.31"/><polygon class="cls-2" points="487.97 331.73 485.03 333.44 470.23 324.89 473.17 323.18 487.97 331.73"/><path class="cls-2" d="M520.43,323.18c1.62.94,1.63,2.48,0,3.42L491,343.71a6.49,6.49,0,0,1-5.9,0L437.7,316.33c-1.66-.95-1.67-2.46,0-3.42l29.43-17.1a6.46,6.46,0,0,1,5.9,0ZM488.05,342l29.44-17.11-47.42-27.37-29.43,17.1L488.05,342"/><polygon class="cls-2" points="496.81 330.02 493.87 331.73 476.11 321.47 479.05 319.76 496.81 330.02"/><path class="cls-2" d="M95.48,384.77c1.62.94,1.63,2.48,0,3.42L66.06,405.3a6.52,6.52,0,0,1-5.9,0L12.75,377.92c-1.66-.95-1.67-2.46,0-3.42l29.43-17.1a6.46,6.46,0,0,1,5.9,0l3,1.71,4.06-2.36a3,3,0,0,1,1.7-.34,2.82,2.82,0,0,1,1.25.34,1.3,1.3,0,0,1,.29.22l14.59,13.45,23.28,8.41a3.17,3.17,0,0,1,.37.16,1.15,1.15,0,0,1,.59.73,1,1,0,0,1-.58,1l-4,2.35ZM71.7,372.82,42.34,389.88l20,7.24,29.36-17.06-20-7.24M39.38,388.17l29.36-17.06L56.18,359.54,26.83,376.6l12.55,11.57M63.1,403.59l29.44-17.11-3-1.72L64.17,399.51a3.3,3.3,0,0,1-2.61.18l-14-5.06,15.52,9M15.69,376.21l15.49,9-8.79-8.09c-.51-.47-.38-1.1.31-1.51l25.38-14.75-3-1.7-29.43,17.1"/><path class="cls-2" d="M100.78,302.48c.54.86.2,1.83-.89,2.49a6.48,6.48,0,0,1-4.25.65L77.52,302.4a5.52,5.52,0,0,1-1.73-.6,2.55,2.55,0,0,1-1.09-1.13c-.35-.81,0-1.69,1.07-2.29l11.79-6.85a6.46,6.46,0,0,1,3.88-.65,5.52,5.52,0,0,1,2,.65,2.57,2.57,0,0,1,1,.89Zm-22-2.39,18.15,3.2-6.36-10.05-11.79,6.85"/><path class="cls-2" d="M130.45,302.66c1.62.94,1.66,2.46,0,3.42L101,323.18a6.52,6.52,0,0,1-5.9,0L47.72,295.81c-1.66-1-1.64-2.48,0-3.42l29.43-17.1a6.4,6.4,0,0,1,5.9,0ZM98.07,321.48l29.44-17.11L80.09,277,50.66,294.1l47.41,27.38"/><path class="cls-2" d="M237.12,364.25c1.62.94,1.66,2.46,0,3.42l-29.44,17.1a6.52,6.52,0,0,1-5.9,0L154.39,357.4c-1.66-1-1.64-2.48,0-3.42l29.43-17.11a6.46,6.46,0,0,1,5.9,0l3,1.71,4.06-2.35a3.15,3.15,0,0,1,1.72-.36,3,3,0,0,1,1.22.35,1.46,1.46,0,0,1,.3.22l14.62,13.44,23.25,8.42a2.56,2.56,0,0,1,.37.17,1.31,1.31,0,0,1,.62.71,1,1,0,0,1-.61,1l-4.05,2.36ZM213.34,352.3,184,369.36l20,7.24,29.36-17.06-20-7.24M181,367.65l29.36-17.06L197.82,339l-29.35,17.06L181,367.65m23.72,15.41L234.18,366l-3-1.73L205.81,379a3.23,3.23,0,0,1-2.58.17l-14-5,15.52,9m-47.41-27.37,15.49,8.94-8.76-8.1c-.51-.47-.41-1.09.28-1.49l25.38-14.75-3-1.71-29.43,17.11"/><path class="cls-2" d="M308.82,507.94c1.63.94,1.63,2.48,0,3.42L279.4,528.47a6.49,6.49,0,0,1-5.9,0l-47.41-27.38c-1.66-.95-1.67-2.46,0-3.41l29.43-17.11a6.46,6.46,0,0,1,5.9,0Zm-32.38,18.82,29.44-17.11-47.42-27.37L229,499.38l47.41,27.38"/><path class="cls-2" d="M279.15,507.76c.54.86.2,1.83-.89,2.49a6.42,6.42,0,0,1-4.25.65l-18.12-3.22a4.91,4.91,0,0,1-1.73-.6,2.38,2.38,0,0,1-1.09-1.12c-.35-.82,0-1.7,1.07-2.3l11.79-6.85a6.4,6.4,0,0,1,3.85-.63,5.26,5.26,0,0,1,2.05.63,2.51,2.51,0,0,1,1,.9Zm-22-2.39,18.12,3.22-6.33-10.07-11.79,6.85"/><polygon class="cls-2" points="187.42 451.49 184.46 453.21 163.71 441.23 166.68 439.51 187.42 451.49"/><polygon class="cls-2" points="178.53 453.19 175.59 454.9 157.83 444.65 160.77 442.94 178.53 453.19"/><polygon class="cls-2" points="169.69 454.9 166.75 456.61 151.95 448.07 154.89 446.36 169.69 454.9"/><path class="cls-2" d="M157.72,425.83a.9.9,0,0,1,0,1.7,3.23,3.23,0,0,1-2.95,0,.91.91,0,0,1,0-1.72A3.29,3.29,0,0,1,157.72,425.83Z"/><path class="cls-2" d="M153.27,423.26c.82.48.83,1.25,0,1.71a3.24,3.24,0,0,1-3,0c-.83-.48-.83-1.25,0-1.72A3.29,3.29,0,0,1,153.27,423.26Z"/><path class="cls-2" d="M162.15,428.39c.83.48.83,1.25,0,1.71a3.26,3.26,0,0,1-3,0,.91.91,0,0,1,0-1.71A3.28,3.28,0,0,1,162.15,428.39Z"/><path class="cls-2" d="M145.93,427.53l17.79,10.27L149,446.36,131.2,436.09Zm3,15.41,8.82-5.13L145.92,431l-8.82,5.13L149,442.94"/><path class="cls-2" d="M202.15,446.36c1.62.94,1.63,2.48,0,3.42l-29.44,17.1a6.46,6.46,0,0,1-5.9,0l-47.41-27.37c-1.66-1-1.67-2.47,0-3.42L148.83,419a6.49,6.49,0,0,1,5.9,0Zm-32.38,18.81,29.44-17.1-47.42-27.38L122.36,437.8l47.41,27.37"/><path class="cls-2" d="M450.46,487.42c1.63.94,1.66,2.46,0,3.42L421,507.94a6.52,6.52,0,0,1-5.9,0l-47.41-27.37c-1.66-1-1.64-2.48,0-3.42L397.14,460a6.46,6.46,0,0,1,5.9,0Zm-32.38,18.81,29.44-17.1L400.1,461.75l-29.43,17.11,47.41,27.37"/><path class="cls-2" d="M420.79,487.24c.54.86.2,1.83-.89,2.49a6.46,6.46,0,0,1-4.24.65l-18.12-3.22a6.14,6.14,0,0,1-1.74-.6,2.61,2.61,0,0,1-1.09-1.13c-.35-.81,0-1.69,1.07-2.29l11.79-6.85a6.46,6.46,0,0,1,3.88-.65,5.33,5.33,0,0,1,2,.65,2.61,2.61,0,0,1,1,.89Zm-22.05-2.39,18.15,3.2L410.53,478l-11.79,6.85"/><polygon class="cls-2" points="329.06 430.96 326.13 432.67 305.38 420.69 308.32 418.98 329.06 430.96"/><polygon class="cls-2" points="320.2 432.65 317.26 434.36 299.5 424.11 302.44 422.4 320.2 432.65"/><polygon class="cls-2" points="311.33 434.38 308.39 436.09 293.59 427.54 296.53 425.83 311.33 434.38"/><path class="cls-2" d="M299.39,405.29a.91.91,0,0,1,0,1.71,3.17,3.17,0,0,1-2.92,0c-.83-.47-.86-1.23,0-1.71A3.33,3.33,0,0,1,299.39,405.29Z"/><path class="cls-2" d="M303.82,407.85c.82.48.83,1.25,0,1.72a3.2,3.2,0,0,1-2.95,0c-.8-.46-.84-1.22,0-1.69A3.26,3.26,0,0,1,303.82,407.85Z"/><path class="cls-2" d="M287.57,407l17.79,10.27-14.73,8.56-17.79-10.27Zm3,15.42,8.85-5.15-11.87-6.85-8.85,5.14,11.87,6.86"/><path class="cls-2" d="M294.94,402.72a.92.92,0,0,1,0,1.73,3.25,3.25,0,0,1-3,0c-.82-.47-.85-1.23,0-1.71A3.33,3.33,0,0,1,294.94,402.72Z"/><path class="cls-2" d="M343.79,425.83c1.63.94,1.66,2.47,0,3.42l-29.44,17.11a6.52,6.52,0,0,1-5.9,0L261.06,419c-1.66-1-1.64-2.48,0-3.42l29.43-17.1a6.4,6.4,0,0,1,5.9,0Zm-32.38,18.82,29.44-17.11-47.42-27.37L264,417.27l47.41,27.38"/><path class="cls-2" d="M122.75,508a.9.9,0,0,1,0,1.7,3.2,3.2,0,0,1-2.92,0c-.83-.47-.83-1.24,0-1.7A3.26,3.26,0,0,1,122.75,508Z"/><path class="cls-2" d="M118.3,505.37a.92.92,0,0,1,0,1.73,3.26,3.26,0,0,1-3,0c-.83-.47-.83-1.24,0-1.71A3.33,3.33,0,0,1,118.3,505.37Z"/><path class="cls-2" d="M127.18,510.5a.92.92,0,0,1,0,1.73,3.26,3.26,0,0,1-3,0,.9.9,0,0,1,0-1.69A3.26,3.26,0,0,1,127.18,510.5Z"/><path class="cls-2" d="M110.93,509.65l17.79,10.27L114,528.47,96.23,518.2Zm3.07,15.4,8.82-5.13L111,513.07l-8.82,5.13L114,525.05"/><polygon class="cls-2" points="152.43 533.61 149.49 535.32 128.74 523.34 131.68 521.63 152.43 533.61"/><polygon class="cls-2" points="143.56 535.3 140.62 537.01 122.86 526.76 125.8 525.05 143.56 535.3"/><polygon class="cls-2" points="134.72 537.01 131.78 538.72 116.98 530.18 119.92 528.47 134.72 537.01"/><path class="cls-2" d="M167.18,528.47c1.62.94,1.63,2.48,0,3.42L137.74,549a6.55,6.55,0,0,1-5.91,0L84.42,521.63c-1.65-1-1.64-2.48,0-3.41l29.46-17.13a6.49,6.49,0,0,1,5.9,0ZM134.77,547.3l29.47-17.12L116.82,502.8,87.36,519.92l47.41,27.38"/><path class="cls-2" d="M119.64,0,96.34,13.54l-15.52-9,14,5.05a3.2,3.2,0,0,0,2.57-.17L113.68,0h-5.9L95.61,7.07,76,0H67L93.4,15.25a6.52,6.52,0,0,0,5.9,0L125.54,0Z"/><path class="cls-2" d="M518.69,15.25,492.28,0h-5.9l29.37,17-29.43,17.1L438.9,6.69,450.41,0h-5.9l-8.57,5c-1.64.95-1.63,2.46,0,3.42l47.42,27.37a6.46,6.46,0,0,0,5.9,0l29.43-17.1C520.33,17.73,520.32,16.19,518.69,15.25Z"/><path class="cls-2" d="M604.51,0h-5.9L625,15.25a6.52,6.52,0,0,0,5.9,0L640,10V6.54l-12,7Z"/><polygon class="cls-2" points="640 214.87 632.02 210.26 640 205.62 640 202.19 626.12 210.26 640 218.28 640 214.87"/><path class="cls-2" d="M640,225.12,617.25,212,640,198.76v-3.42l-25.71,14.94c-1.62.94-1.64,2.46,0,3.42L640,228.53Z"/><path class="cls-2" d="M640,315.48l-10.31,6L582.28,294.1,611.71,277,640,293.32v-3.4l-25.35-14.64a6.46,6.46,0,0,0-5.9,0l-29.43,17.11c-1.62.94-1.64,2.46,0,3.42l47.41,27.37a6.52,6.52,0,0,0,5.9,0l7.35-4.27Z"/><path class="cls-2" d="M640,532.06l-21-12.14,21-12.21v-3.43l-24,13.93c-1.62.94-1.63,2.47,0,3.42l24,13.83Z"/><polygon class="cls-2" points="640 521.81 633.75 518.2 640 514.57 640 511.14 627.85 518.2 640 525.21 640 521.81"/><path class="cls-2" d="M511.21,560l-2-1.14L512.4,560h7.88L504,554.12l29.35-17.06,20,7.24-27,15.7h5.9l18.94-11,3,1.73-16,9.28h5.9l13-7.58c1.64-.95,1.61-2.47,0-3.41l-3-1.71,4.05-2.36a1,1,0,0,0,.61-1,1.28,1.28,0,0,0-.61-.71,3.34,3.34,0,0,0-.38-.17l-23.25-8.42L520,521.2a1.69,1.69,0,0,0-.29-.22,2.9,2.9,0,0,0-1.22-.35,3.28,3.28,0,0,0-1.73.35l-4.05,2.36-3-1.71a6.48,6.48,0,0,0-5.91,0l-29.43,17.11c-1.62.94-1.64,2.46,0,3.42L505.31,560Zm-33.87-19.55,29.43-17.11,3,1.71L484.35,539.8c-.69.4-.79,1-.28,1.49l8.76,8.1Zm11.14.38,29.35-17.06,12.56,11.58L501,552.41Z"/><path class="cls-2" d="M337.37,560l27.76-16.14,3,1.71L343.27,560h5.9l27-15.7,12.56,11.57-7.1,4.13h5.9l4.16-2.42L398.4,560h7.87l-13.35-4.82-14.59-13.46a1.67,1.67,0,0,0-.29-.21,2.82,2.82,0,0,0-1.25-.34,3,3,0,0,0-1.7.34L371,543.86l-3-1.7a6.46,6.46,0,0,0-5.9,0l-29.43,17.1a3,3,0,0,0-.87.74Z"/><polygon class="cls-2" points="0 547.91 0 551.32 7.84 555.85 10.79 554.14 0 547.91"/><polygon class="cls-2" points="0 554.72 0 556.94 1.92 555.83 0 554.72"/><path class="cls-2" d="M6.6,560h5.9l13-7.57c1.64-1,1.61-2.48,0-3.42L0,534.28v3.41l22.57,13Z"/><path class="cls-2" d="M62.18,461.83a1.34,1.34,0,0,0-.66-.74,1.4,1.4,0,0,0-.3-.15l-23.28-8.41L23.35,439.08a1.2,1.2,0,0,0-.26-.18,3.18,3.18,0,0,0-3,0l-4,2.34-3-1.71a6.46,6.46,0,0,0-5.9,0L0,443.69v3.43l10.15-5.9,3,1.71L0,450.54V454l21.21-12.32,12.56,11.58L4.39,470.3l-4.39-4v6.63l25.16,14.53a6.52,6.52,0,0,0,5.9,0L60.53,470.3c1.61-.94,1.6-2.48,0-3.42l-3-1.71,4-2.34A1,1,0,0,0,62.18,461.83Zm-25.45-6.9,20,7.24L27.38,479.25,7.35,472Zm20.84,13.66L28.1,485.71l-15.52-9,14,5.05a3.23,3.23,0,0,0,2.58-.17l25.41-14.76Z"/><path class="cls-2" d="M23.78,241.07,0,227.35v3.4l20.84,12L0,254.89v3.43l23.8-13.83C25.44,243.54,25.4,242,23.78,241.07Z"/><polygon class="cls-2" points="0 240.97 0 244.38 6.11 247.91 9.05 246.2 0 240.97"/><path class="cls-2" d="M58.77,159,11.36,131.57a6.49,6.49,0,0,0-5.9,0L0,134.74v3.43l8.42-4.89,47.41,27.38L26.37,177.78,0,162.55V166l23.43,13.53a6.52,6.52,0,0,0,5.9,0l29.46-17.12C60.41,161.43,60.4,159.89,58.77,159Z"/><polygon class="cls-2" points="2.53 140.13 0 141.6 0 145.03 2.55 143.55 14.41 150.4 5.59 155.53 0 152.3 0 155.71 5.61 158.95 20.32 150.4 2.53 140.13"/></g></g></g></svg>